<svg id="Layer_1" data-name="Layer 1" xmlns="http://www.w3.org/2000/svg" viewBox="0 0 1080 1080"><defs><style>.cls-1{fill:#ec6c67;}.cls-2{fill:#fff;}</style></defs><title>tt-propic</title><rect class="cls-1" width="1080" height="1080"/><path class="cls-2" d="M855.12,333.67c11.67,0,14.41,2.76,14.41,14.55v63c0,9.46-3.36,12.81-12.81,12.81-22.58,0-45.17.11-67.75-.08-4.23,0-5.47.92-4.7,5.33,13.86,80.41,48.35,282.36,51.78,302.91,1.6,9.35-2.55,14.06-12.11,14.09H801.19c-8.41,0-10.93-1.77-13.25-9.86-9-31.24-67-235.05-87-305.71-1.47-5.22-3.69-6.81-9.09-6.81q-151.86.26-303.72,0c-5.41,0-7.6,1.61-9.07,6.83-28.56,100.71-86.88,305.41-87.42,307.08-2.1,6.36-4.81,8.42-11.44,8.46q-12.3.08-24.63,0c-8.88,0-13.06-4.81-11.68-13.62,1.45-9.2,47-275.22,51.69-302.45,1.05-6.1,1-6.14-5.05-6.14H222.82c-8.81,0-12.31-3.51-12.33-12.36q0-32.46,0-64.89c0-9.81,3.29-13.09,13-13.09Z"/></svg>