<?xml version="1.0" encoding="utf-8"?>
<!-- Generator: Adobe Illustrator 23.1.1, SVG Export Plug-In . SVG Version: 6.00 Build 0)  -->
<svg version="1.1" id="Layer_1" xmlns="http://www.w3.org/2000/svg" xmlns:xlink="http://www.w3.org/1999/xlink" x="0px" y="0px"
	 viewBox="0 0 1080 1080" style="enable-background:new 0 0 1080 1080;" xml:space="preserve">
<style type="text/css">
	.st0{fill:#4C361C;}
	.st1{display:none;}
	.st2{display:inline;}
	.st3{fill:#FF6D2D;stroke:#FF6D2D;}
	.st4{fill:#FF6D2D;}
	.st5{fill-rule:evenodd;clip-rule:evenodd;fill:#231F20;}
	.st6{fill:none;stroke:#000000;stroke-width:0.5;stroke-miterlimit:10;}
	.st7{fill-rule:evenodd;clip-rule:evenodd;fill:#FF6D2D;}
	.st8{fill-rule:evenodd;clip-rule:evenodd;fill:#FFFFFF;}
	.st9{fill-rule:evenodd;clip-rule:evenodd;}
	.st10{fill:#0C0C0F;}
	.st11{font-family:'ArialMT';}
	.st12{font-size:25.092px;}
	.st13{fill-rule:evenodd;clip-rule:evenodd;fill:#0C0C0F;}
	.st14{fill:#231F20;}
	.st15{font-size:14px;}
</style>
<rect x="-17.5" y="-13.7" class="st0" width="1127.5" height="1115.3"/>
<g class="st1">
	<g class="st2">
		<path class="st3" d="M557.2,401.2h-1.9c-0.8,0-1.2-0.6-1.2-1.2c0-0.6,0.4-1.2,1.2-1.2h6.5c0.8,0,1.2,0.6,1.2,1.2
			c0,0.6-0.3,1.2-1.2,1.2h-1.9v9c0,0.9-0.6,1.4-1.3,1.4s-1.3-0.5-1.3-1.4L557.2,401.2L557.2,401.2z"/>
		<path class="st3" d="M565.3,400c0-0.9,0.6-1.4,1.3-1.4c0.8,0,1.3,0.5,1.3,1.4v3.8h5.5V400c0-0.9,0.6-1.4,1.3-1.4s1.3,0.5,1.3,1.4
			v10.1c0,0.9-0.6,1.4-1.3,1.4s-1.3-0.5-1.3-1.4v-3.9h-5.5v3.9c0,0.9-0.6,1.4-1.3,1.4s-1.3-0.5-1.3-1.4V400z"/>
		<path class="st3" d="M579.5,400.3c0-0.9,0.4-1.5,1.4-1.5h4.4c0.8,0,1.2,0.6,1.2,1.2c0,0.6-0.4,1.2-1.2,1.2h-3.1v2.6h2.9
			c0.9,0,1.3,0.6,1.3,1.2s-0.4,1.2-1.3,1.2h-2.9v2.7h3.3c0.8,0,1.2,0.6,1.2,1.2s-0.4,1.2-1.2,1.2h-4.5c-0.8,0-1.4-0.5-1.4-1.3
			L579.5,400.3L579.5,400.3z"/>
	</g>
	<g class="st2">
		<path class="st3" d="M548.5,417.4c1.3,0,3.8,0.4,3.8,2c0,0.6-0.4,1.2-1.1,1.2c-0.7,0-1.2-0.6-2.7-0.6c-2.2,0-3.3,1.9-3.3,4
			c0,2.1,1.2,4,3.3,4c1.5,0,2.1-0.8,2.8-0.8c0.8,0,1.2,0.8,1.2,1.2c0,1.7-2.7,2.1-4,2.1c-3.6,0-6.1-2.9-6.1-6.6
			S544.9,417.4,548.5,417.4z"/>
		<path class="st3" d="M555.5,418.9c0-0.9,0.6-1.4,1.3-1.4s1.3,0.5,1.3,1.4v9h3.1c0.9,0,1.3,0.7,1.3,1.3c0,0.6-0.5,1.2-1.3,1.2h-4.4
			c-0.9,0-1.4-0.6-1.4-1.5L555.5,418.9L555.5,418.9z"/>
		<path class="st3" d="M564.8,419.2c0-0.9,0.4-1.5,1.4-1.5h4.4c0.8,0,1.2,0.6,1.2,1.2c0,0.6-0.4,1.2-1.2,1.2h-3.1v2.6h2.9
			c0.9,0,1.3,0.6,1.3,1.2s-0.4,1.2-1.3,1.2h-2.9v2.7h3.3c0.8,0,1.2,0.6,1.2,1.2s-0.4,1.2-1.2,1.2h-4.5c-0.8,0-1.4-0.5-1.4-1.3
			L564.8,419.2L564.8,419.2z"/>
		<path class="st3" d="M577.7,418.9c0.3-0.8,1-1.5,1.9-1.5c0.9,0,1.6,0.6,1.9,1.5l3.5,9.7c0.1,0.3,0.1,0.5,0.1,0.6
			c0,0.7-0.6,1.2-1.2,1.2c-0.7,0-1.1-0.4-1.3-0.9l-0.5-1.7h-4.9l-0.5,1.7c-0.2,0.5-0.5,0.9-1.3,0.9c-0.7,0-1.3-0.5-1.3-1.2
			c0-0.3,0.1-0.5,0.1-0.6L577.7,418.9z M577.8,425.4h3.4l-1.6-5.2h0L577.8,425.4z"/>
		<path class="st3" d="M587.5,418.9c0-0.9,0.6-1.4,1.3-1.4c0.3,0,0.9,0.3,1.1,0.6l5.6,7.5h0v-6.7c0-0.9,0.6-1.4,1.3-1.4
			s1.3,0.5,1.3,1.4V429c0,0.9-0.6,1.4-1.3,1.4c-0.3,0-0.9-0.3-1.1-0.6l-5.6-7.5h0v6.6c0,0.9-0.6,1.4-1.3,1.4s-1.3-0.5-1.3-1.4
			L587.5,418.9L587.5,418.9z"/>
	</g>
	<g class="st2">
		<path class="st3" d="M530.2,437.8c0.1-0.6,0.8-1.4,1.7-1.4c0.9,0,1.6,0.6,1.8,1.3l2.1,7h0l2.1-7c0.2-0.6,0.9-1.3,1.8-1.3
			c0.9,0,1.6,0.7,1.7,1.4l1.6,9.9c0,0.1,0,0.2,0,0.3c0,0.8-0.6,1.3-1.3,1.3c-0.9,0-1.2-0.4-1.4-1.2l-1-7.2h0l-2.1,7.5
			c-0.1,0.4-0.5,1-1.4,1c-1,0-1.3-0.6-1.4-1l-2.1-7.5h0l-1,7.2c-0.1,0.9-0.5,1.2-1.4,1.2c-0.7,0-1.3-0.5-1.3-1.3c0-0.1,0-0.2,0-0.3
			L530.2,437.8z"/>
		<path class="st3" d="M549,437.8c0.3-0.8,1-1.5,1.9-1.5c0.9,0,1.6,0.6,1.9,1.5l3.5,9.7c0.1,0.3,0.1,0.5,0.1,0.6
			c0,0.7-0.6,1.2-1.2,1.2c-0.7,0-1.1-0.4-1.3-0.9l-0.5-1.7h-4.9l-0.5,1.7c-0.2,0.5-0.5,0.9-1.3,0.9c-0.7,0-1.3-0.5-1.3-1.2
			c0-0.3,0.1-0.5,0.1-0.6L549,437.8z M549.2,444.3h3.3l-1.6-5.2h0L549.2,444.3z"/>
		<path class="st3" d="M564.5,436.4c1.3,0,3.8,0.4,3.8,2c0,0.6-0.4,1.2-1.1,1.2c-0.7,0-1.2-0.6-2.7-0.6c-2.2,0-3.3,1.9-3.3,4
			c0,2.1,1.2,4,3.3,4c1.5,0,2.1-0.8,2.8-0.8c0.8,0,1.2,0.8,1.2,1.2c0,1.7-2.7,2.1-4,2.1c-3.6,0-6.1-2.9-6.1-6.6
			C558.5,439.2,560.9,436.4,564.5,436.4z"/>
		<path class="st3" d="M571.5,437.9c0-0.9,0.6-1.4,1.3-1.4c0.8,0,1.3,0.5,1.3,1.4v3.8h5.5v-3.8c0-0.9,0.6-1.4,1.3-1.4
			s1.3,0.5,1.3,1.4V448c0,0.9-0.6,1.4-1.3,1.4c-0.8,0-1.3-0.5-1.3-1.4v-3.9h-5.5v3.9c0,0.9-0.6,1.4-1.3,1.4s-1.3-0.5-1.3-1.4V437.9z
			"/>
		<path class="st3" d="M585.7,437.9c0-0.9,0.6-1.4,1.3-1.4s1.3,0.5,1.3,1.4V448c0,0.9-0.6,1.4-1.3,1.4c-0.8,0-1.3-0.5-1.3-1.4V437.9
			z"/>
		<path class="st3" d="M591.6,437.9c0-0.9,0.6-1.4,1.3-1.4c0.3,0,0.9,0.3,1.1,0.6l5.6,7.5h0v-6.7c0-0.9,0.6-1.4,1.3-1.4
			s1.3,0.5,1.3,1.4V448c0,0.9-0.6,1.4-1.3,1.4c-0.3,0-0.9-0.3-1.1-0.6l-5.6-7.5h0v6.6c0,0.9-0.6,1.4-1.3,1.4s-1.3-0.5-1.3-1.4V437.9
			z"/>
		<path class="st3" d="M605.6,438.1c0-0.9,0.4-1.5,1.4-1.5h4.4c0.8,0,1.3,0.6,1.3,1.2c0,0.6-0.4,1.2-1.3,1.2h-3.1v2.6h2.9
			c0.9,0,1.3,0.6,1.3,1.2s-0.4,1.2-1.3,1.2h-2.9v2.7h3.3c0.8,0,1.2,0.6,1.2,1.2s-0.4,1.2-1.2,1.2h-4.5c-0.8,0-1.4-0.5-1.4-1.3
			L605.6,438.1L605.6,438.1z"/>
	</g>
	<g class="st2">
		<path class="st4" d="M549.7,386.8c18.9-8,42.6-3.8,57.8,9.3c15.6,13.5,23.1,34.5,19.6,55.4c0,0,0.1,0.5-1,0.5s-1.3-0.5-1.3-0.5
			c1.1-9.5,0.2-22-3.5-30.6c-1-3.5-2.9-6.7-4.7-10c-12-17.8-31.4-27.6-52.9-24.9c-20.5,2.5-40,19.8-45.4,39.6
			c-1.2,6.6-2.5,13.7-1.6,20.7l0.4,5.5c0,0-2.8,1.9-3.2-2.2C510.3,423.9,526,396.1,549.7,386.8z"/>
		<path class="st4" d="M542.6,395.2c15.4-11,39.3-10.5,55-0.8c19.5,11.7,28.8,35.7,25.2,57.5h-0.7c2.8-21-5.2-43-23-55.1
			c-15.2-11-39.5-11.1-55.1-0.9c-18.6,11.4-27.7,35-24.5,55.8c-0.1,0.3-0.8,0.4-1,0.4c-0.7-1.4-0.8-6.3-0.9-8.1
			C516.1,424,526.2,406,542.6,395.2z"/>
		<path class="st4" d="M543.8,397.4c13.7-9.1,33.8-10.4,48.7-2.9c19.1,9,30.2,29.5,28.8,50.7c0.2,1.4-0.2,7.3-1,6.8
			c2.8-20.4-5.8-42.3-22.6-53.8c-15.3-10.4-37.7-10.8-53-0.2c-17.4,10.7-25.7,33.6-23.1,54.2c-1,0.2-1.6-5.9-1.6-7.4
			C519,426.4,528.2,408,543.8,397.4z"/>
	</g>
	<g class="st2">
		<rect x="653.7" y="80" class="st5" width="282" height="174.6"/>
		<rect x="653.7" y="80" class="st6" width="282" height="174.6"/>
		<polyline class="st7" points="653.7,201.2 935.7,201.2 935.7,254.6 653.7,254.6 		"/>
		<path class="st8" d="M696.3,186.8h200.8c8.3,0,15,6.8,15,15.1l0,0c0,8.3-6.8,15.1-15,15.1H696.3c-8.3,0-15-6.8-15-15.1l0,0
			C681.2,193.6,688,186.8,696.3,186.8"/>
		<path class="st9" d="M696.3,189.1h200.8c7.7,0,13.9,6,13.9,13.3l0,0c0,7.3-6.3,13.3-13.9,13.3H696.3c-7.7,0-13.9-6-13.9-13.3l0,0
			C682.4,195.1,688.6,189.1,696.3,189.1"/>
		<path class="st7" d="M696.3,187.9h200.8c6.8,0,13.2,4.6,13.7,12.9H682.6C682.3,193.5,689.5,187.9,696.3,187.9"/>
		<path class="st8" d="M696.3,190.2h200.8c6.4,0,11.7,5.2,11.7,11.7l0,0c0,6.4-5.2,11.7-11.7,11.7H696.3c-6.4,0-11.7-5.2-11.7-11.7
			l0,0C684.6,195.4,689.9,190.2,696.3,190.2"/>
		<text transform="matrix(0.9 0 0 1 696.2383 211.1816)" class="st10 st11 st12">CAR CARE CENTER</text>
		<path class="st8" d="M696.1,164.9c-19.8,14.8-34.2,31-42.7,46.8v-6.5c8.4-16,22.9-32.4,43-47.4c28.2-21,62.2-35.3,94.2-41.3
			l-6.8,13C755,133.2,711.8,153.3,696.1,164.9"/>
		<path class="st13" d="M781.1,138c-29.5,5-60.1,16.6-85.9,34.3c-19.2,13.1-33.2,27.9-41.8,42.6v-6.4c8.7-14.7,23.7-28.9,43.1-42.2
			c27-18.5,58.3-29.8,88.8-34.2"/>
		<path class="st7" d="M790.6,116.6c-32,6-66,20.2-94.2,41.3c-20.1,15-34.6,31.4-43,47.4v-4.7c8.2-16.7,22.2-35.2,42.8-50.6
			c26.8-20,69.5-37.3,102-44.4"/>
		<path class="st8" d="M809.7,93.3c-40,8.1-86.5,25.2-112.7,44.7c-20.6,15.4-35.3,32.3-43.6,48.6l-0.4-3.8l0.3-2.5
			c8.3-16.4,23.4-34.1,44-49.4c23.2-17.3,70.9-41.9,117.1-49.2c0,0,39.3-9.6,54.7-9.1L809.7,93.3z"/>
		<path class="st13" d="M799.9,103.1c-34.6,8-70.6,24-100.8,46.6c-20.3,15.1-35.4,32.3-45.6,48.7v-11.2
			c10.8-15.4,27.3-29.9,47.2-44.8c31.7-23.7,68.4-39.2,104.3-46.7"/>
		<g>
			<path class="st3" d="M839.2,117.4h-1.9c-0.8,0-1.2-0.6-1.2-1.2c0-0.6,0.4-1.2,1.2-1.2h6.5c0.8,0,1.2,0.6,1.2,1.2
				c0,0.6-0.3,1.2-1.2,1.2h-1.9v8.9c0,0.9-0.6,1.4-1.3,1.4s-1.3-0.5-1.3-1.4L839.2,117.4L839.2,117.4z"/>
			<path class="st3" d="M847.3,116.2c0-0.9,0.6-1.4,1.3-1.4c0.8,0,1.3,0.5,1.3,1.4v3.8h5.5v-3.8c0-0.9,0.6-1.4,1.3-1.4
				s1.3,0.5,1.3,1.4v10.1c0,0.9-0.6,1.4-1.3,1.4s-1.3-0.5-1.3-1.4v-3.9h-5.5v3.9c0,0.9-0.6,1.4-1.3,1.4s-1.3-0.5-1.3-1.4V116.2z"/>
			<path class="st3" d="M861.5,116.5c0-0.9,0.4-1.6,1.4-1.6h4.4c0.8,0,1.2,0.6,1.2,1.2c0,0.6-0.4,1.2-1.2,1.2h-3.1v2.6h2.9
				c0.9,0,1.3,0.6,1.3,1.2s-0.4,1.2-1.3,1.2h-2.9v2.7h3.3c0.8,0,1.2,0.6,1.2,1.2s-0.4,1.2-1.2,1.2h-4.5c-0.8,0-1.4-0.5-1.4-1.3
				L861.5,116.5L861.5,116.5z"/>
			<path class="st3" d="M830.5,133.6c1.3,0,3.8,0.4,3.8,2c0,0.6-0.4,1.2-1.1,1.2c-0.7,0-1.2-0.6-2.7-0.6c-2.2,0-3.3,1.9-3.3,4
				c0,2.1,1.2,3.9,3.3,3.9c1.5,0,2.1-0.8,2.8-0.8c0.8,0,1.2,0.8,1.2,1.2c0,1.7-2.7,2.1-4,2.1c-3.6,0-6.1-2.9-6.1-6.6
				S826.9,133.6,830.5,133.6z"/>
			<path class="st3" d="M837.5,135.1c0-0.9,0.6-1.4,1.3-1.4s1.3,0.5,1.3,1.4v8.9h3.1c0.9,0,1.3,0.7,1.3,1.3c0,0.6-0.5,1.2-1.3,1.2
				h-4.4c-0.9,0-1.4-0.6-1.4-1.5L837.5,135.1L837.5,135.1z"/>
			<path class="st3" d="M846.8,135.4c0-0.9,0.4-1.6,1.4-1.6h4.4c0.8,0,1.2,0.6,1.2,1.2c0,0.6-0.4,1.2-1.2,1.2h-3.1v2.6h2.9
				c0.9,0,1.3,0.6,1.3,1.2s-0.4,1.2-1.3,1.2h-2.9v2.7h3.3c0.8,0,1.2,0.6,1.2,1.2s-0.4,1.2-1.2,1.2h-4.5c-0.8,0-1.4-0.5-1.4-1.3
				L846.8,135.4L846.8,135.4z"/>
			<path class="st3" d="M859.7,135.1c0.3-0.8,1-1.5,1.9-1.5c0.9,0,1.6,0.6,1.9,1.5l3.5,9.7c0.1,0.3,0.1,0.5,0.1,0.6
				c0,0.7-0.6,1.2-1.2,1.2c-0.7,0-1.1-0.4-1.3-0.9L864,144h-4.9l-0.5,1.7c-0.2,0.6-0.5,0.9-1.3,0.9c-0.7,0-1.3-0.5-1.3-1.2
				c0-0.3,0.1-0.5,0.1-0.6L859.7,135.1z M859.8,141.6h3.4l-1.6-5.2h0L859.8,141.6z"/>
			<path class="st3" d="M869.5,135.1c0-0.9,0.6-1.4,1.3-1.4c0.3,0,0.9,0.3,1.1,0.6l5.6,7.5h0v-6.7c0-0.9,0.6-1.4,1.3-1.4
				s1.3,0.5,1.3,1.4v10.1c0,0.9-0.6,1.4-1.3,1.4c-0.3,0-0.9-0.3-1.1-0.6l-5.6-7.4h0v6.6c0,0.9-0.6,1.4-1.3,1.4s-1.3-0.5-1.3-1.4
				L869.5,135.1L869.5,135.1z"/>
			<g>
				<path class="st4" d="M824.9,84.9c24.6-10.3,55.3-4.9,75,12.1c20.2,17.5,30,43.8,25.5,70.9c0,0,0.1,0.6-1.5,0.6
					c-1.6,0-1.7-0.6-1.7-0.6c1.4-12.3,0.4-27.6-4.3-38.7c-1.3-4.5-3.8-8.7-6.2-12.9C896.2,93.1,871,80.4,843,83.9
					c-26.6,3.2-51.9,25.7-58.9,51.4c-1.5,8.6-3,17.6-2,26.6c0,0,0.5,5.6,0.4,6.2c-0.2,0.6-4.1,1.2-4.2-2.2
					C773.8,132.5,794.1,96.9,824.9,84.9z"/>
				<path class="st4" d="M815.7,95.8c20-14.3,51-13.6,71.5-1c25.4,15.2,37.5,45.3,32.6,73c0,0,0.1,0.5-0.6,0.5
					c-0.7,0-0.3-0.5-0.3-0.5c3.8-26.6-6.6-54.1-29.7-69.8c-19.7-14.3-51.3-14.4-71.5-1.2c-24.2,14.8-36,44.6-31.9,71.6
					c-0.1,0.4-0.8,0-1.1,0c-0.9-1.9-1.2-6.8-1.4-9.1C781.3,133.1,794.5,109.8,815.7,95.8z"/>
				<path class="st4" d="M817.3,98.5c17.8-11.9,43.9-13.5,63.3-3.8c24.8,11.7,39,38.3,37.2,65.9c-0.2,1.8,0,6.7-1.3,7.6
					c3.7-26.5-7.4-53.8-29.2-68.7c-19.9-13.5-48.9-14.1-68.9-0.3c-22.6,13.9-33.8,42.3-30.5,69c-1.6,0.2-1.8-6.2-1.8-8.1
					C785,137.5,797,112.4,817.3,98.5z"/>
			</g>
			<g>
				<path class="st4" d="M831.7,103c18.9-7.9,42.6-3.8,57.8,9.3c15.6,13.5,23.1,34.5,19.6,55.4c0,0,0.1,0.6-1,0.6s-1.3-0.6-1.3-0.6
					c1.1-9.5,0.2-22-3.5-30.6c-1-3.5-2.9-6.7-4.7-10c-12-17.8-31.4-27.6-52.9-24.9c-20.5,2.4-40,19.8-45.4,39.6
					c-1.2,6.6-2.5,13.7-1.6,20.7l0.4,5.5c0,0-2.8,1.9-3.2-2.2C792.3,140.1,808,112.3,831.7,103z"/>
				<path class="st4" d="M824.6,111.4c15.4-11,39.3-10.5,55-0.8c19.5,11.7,28.8,35.7,25.2,57.5h-0.7c2.8-21-5.2-43-23-55.1
					c-15.2-11-39.5-11.1-55.1-0.9c-18.6,11.4-27.7,35-24.5,55.8c-0.1,0.3-0.8,0.4-1,0.4c-0.7-1.4-0.8-6.3-0.9-8.1
					C798.1,140.2,808.2,122.2,824.6,111.4z"/>
				<path class="st4" d="M825.8,113.5c13.7-9.1,33.8-10.4,48.7-2.9c19.1,9,30.2,29.5,28.8,50.7c0.2,1.4-0.2,7.3-1,6.8
					c2.8-20.4-5.8-42.3-22.6-53.8c-15.3-10.4-37.7-10.8-53-0.2c-17.4,10.7-25.7,33.6-23.1,54.2c-1,0.2-1.6-5.9-1.6-7.4
					C801,142.5,810.2,124.2,825.8,113.5z"/>
			</g>
			<rect x="776.7" y="166.7" class="st14" width="152.6" height="3.4"/>
			<path class="st3" d="M812.2,154c0.1-0.6,0.8-1.4,1.7-1.4c0.9,0,1.6,0.6,1.8,1.3l2.1,7h0l2.1-7c0.2-0.6,0.9-1.3,1.8-1.3
				c0.9,0,1.6,0.7,1.7,1.4l1.6,9.9c0,0.1,0,0.2,0,0.3c0,0.8-0.6,1.3-1.3,1.3c-0.9,0-1.2-0.4-1.4-1.2l-1-7.2h0l-2.1,7.5
				c-0.1,0.4-0.5,1-1.4,1c-1,0-1.3-0.6-1.4-1l-2.1-7.5h0l-1,7.2c-0.1,0.9-0.5,1.2-1.4,1.2c-0.7,0-1.3-0.5-1.3-1.3c0-0.1,0-0.2,0-0.3
				L812.2,154z"/>
			<path class="st3" d="M831,154c0.3-0.8,1-1.5,1.9-1.5c0.9,0,1.6,0.6,1.9,1.5l3.5,9.7c0.1,0.3,0.1,0.5,0.1,0.6
				c0,0.7-0.6,1.2-1.2,1.2c-0.7,0-1.1-0.4-1.3-0.9l-0.5-1.7h-4.9l-0.5,1.7c-0.2,0.6-0.5,0.9-1.3,0.9c-0.7,0-1.3-0.5-1.3-1.2
				c0-0.3,0.1-0.5,0.1-0.6L831,154z M831.2,160.5h3.3l-1.6-5.2h0L831.2,160.5z"/>
			<path class="st3" d="M846.5,152.5c1.3,0,3.8,0.4,3.8,2c0,0.6-0.4,1.2-1.1,1.2c-0.7,0-1.2-0.6-2.7-0.6c-2.2,0-3.3,1.9-3.3,4
				c0,2.1,1.2,3.9,3.3,3.9c1.5,0,2.1-0.8,2.8-0.8c0.8,0,1.2,0.8,1.2,1.2c0,1.7-2.7,2.1-4,2.1c-3.6,0-6.1-2.9-6.1-6.6
				C840.5,155.4,842.9,152.5,846.5,152.5z"/>
			<path class="st3" d="M853.5,154c0-0.9,0.6-1.4,1.3-1.4c0.8,0,1.3,0.5,1.3,1.4v3.8h5.5V154c0-0.9,0.6-1.4,1.3-1.4s1.3,0.5,1.3,1.4
				v10.1c0,0.9-0.6,1.4-1.3,1.4c-0.8,0-1.3-0.5-1.3-1.4v-3.9h-5.5v3.9c0,0.9-0.6,1.4-1.3,1.4s-1.3-0.5-1.3-1.4V154z"/>
			<path class="st3" d="M867.7,154c0-0.9,0.6-1.4,1.3-1.4s1.3,0.5,1.3,1.4v10.1c0,0.9-0.6,1.4-1.3,1.4c-0.8,0-1.3-0.5-1.3-1.4V154z"
				/>
			<path class="st3" d="M873.6,154c0-0.9,0.6-1.4,1.3-1.4c0.3,0,0.9,0.3,1.1,0.6l5.6,7.5h0V154c0-0.9,0.6-1.4,1.3-1.4
				s1.3,0.5,1.3,1.4v10.1c0,0.9-0.6,1.4-1.3,1.4c-0.3,0-0.9-0.3-1.1-0.6l-5.6-7.4h0v6.6c0,0.9-0.6,1.4-1.3,1.4s-1.3-0.5-1.3-1.4V154
				z"/>
			<path class="st3" d="M887.6,154.3c0-0.9,0.4-1.6,1.4-1.6h4.4c0.8,0,1.3,0.6,1.3,1.2c0,0.6-0.4,1.2-1.3,1.2h-3.1v2.6h2.9
				c0.9,0,1.3,0.6,1.3,1.2s-0.4,1.2-1.3,1.2h-2.9v2.7h3.3c0.8,0,1.2,0.6,1.2,1.2s-0.4,1.2-1.2,1.2h-4.5c-0.8,0-1.4-0.5-1.4-1.3
				L887.6,154.3L887.6,154.3z"/>
		</g>
		<text transform="matrix(1 0 0 1 684.3763 234.4382)" class="st14 st11 st15">1181-3 Worcester Road • Framingham </text>
		<text transform="matrix(0.9 0 0 1 671.4121 251.2378)" class="st14 st11 st15">508-872-1441 • www.cleanmachinecarcare.com</text>
	</g>
	<g class="st2">
		<path class="st4" d="M542.9,368.7c24.6-10.3,55.3-4.9,75,12.1c20.2,17.5,30,43.8,25.5,70.9c0,0,0.1,0.6-1.5,0.6
			c-1.6,0-1.7-0.6-1.7-0.6c1.4-12.3,0.4-27.6-4.3-38.7c-1.3-4.5-3.8-8.7-6.2-12.9c-15.6-23.1-40.8-35.8-68.8-32.4
			c-26.6,3.2-51.9,25.7-58.9,51.4c-1.5,8.6-3,17.6-2,26.6c0,0,0.5,5.6,0.4,6.2c-0.2,0.6-4.1,1.2-4.2-2.2
			C491.8,416.3,512.1,380.8,542.9,368.7z"/>
		<path class="st4" d="M533.7,379.6c20-14.3,51-13.6,71.5-1c25.4,15.2,37.5,45.3,32.6,73c0,0,0.1,0.5-0.6,0.5
			c-0.7,0-0.3-0.5-0.3-0.5c3.8-26.6-6.6-54-29.7-69.8c-19.7-14.3-51.3-14.4-71.5-1.2c-24.1,14.8-36,44.6-31.9,71.6
			c-0.1,0.4-0.8,0-1.1,0c-0.9-1.9-1.1-6.8-1.4-9.1C499.3,417,512.5,393.6,533.7,379.6z"/>
		<path class="st4" d="M535.3,382.4c17.8-11.9,43.9-13.5,63.3-3.8c24.8,11.7,39,38.3,37.2,65.9c-0.2,1.8,0,6.7-1.3,7.6
			c3.7-26.5-7.4-53.8-29.2-68.7c-19.9-13.5-48.9-14-68.9-0.3c-22.6,13.9-33.8,42.3-30.5,69c-1.6,0.2-1.8-6.2-1.8-8.1
			C503,421.3,515,396.2,535.3,382.4z"/>
	</g>
</g>
<g id="sml_In">
	<g>
		<path class="st4" d="M362.6,400.8c95.8-63.9,236.1-72.4,340.3-20.3c133.5,62.7,210.9,206,201,354.1c1.6,9.7-1.1,50.9-7.2,47.2
			c19.9-142.5-40.8-295.3-158-375.9c-107.2-72.8-263.2-75.6-370.3-1.7C247,479,189.1,639.1,207,782.8c-7.3,1.2-11-41-11.1-51.9
			C189.3,603.2,253.3,475.4,362.6,400.8z"/>
	</g>
</g>
<g id="sml_Mid">
	<g>
		<path class="st4" d="M354,385.9c107.9-76.8,274.5-73.3,384.5-5.5C875,462.2,939.9,630,914.9,782.3l-5,0
			c19.3-146.6-36.3-300.1-160.6-384.9c-105.8-77.1-276-77.6-384.6-6.6c-129.9,79.7-193.5,244.5-171.4,389.6
			c-0.7,2.2-5.8,2.4-7.2,2.4c-5-9.9-5.6-43.8-6.2-56.4C169.2,586.9,239.7,461.2,354,385.9z"/>
	</g>
</g>
<g id="sml_Out">
	<g>
		<path class="st4" d="M403.5,327.2c132.2-55.5,297.5-26.5,403.4,64.9C915.7,486.2,968.2,632.9,944.1,779c0,0,0.5,3.8-7.2,3.8
			c-7.7,0-8.8-3.8-8.8-3.8c7.5-66.3,1.1-154-24.1-213.7c-7.3-24.2-20.2-46.9-33.1-69.6c-84-124.2-219.6-192.6-369.8-174
			c-143.1,17.1-279.2,138.2-316.9,276.5c-8.3,46.3-17.3,95.5-11.3,144.7l2.8,38.3c0,0-19.3,13.2-22.7-15.5
			C128.5,586.4,238,392.2,403.5,327.2z"/>
	</g>
</g>
<g id="Big_In">
	<g>
		<path class="st4" d="M303.3,296c124.4-82.9,306.6-94.1,441.9-26.3c173.4,81.4,272.3,267.7,259.5,460.2c-1.7,12.5,0.3,46.5-8.9,53
			c25.9-185.1-52-375.5-204.2-480.1c-139.2-94.5-341.8-98.1-480.9-2.2C153.1,397.5,74.8,596.2,98,782.8
			c-11.4,1.2-12.8-43.5-12.8-56.9C77.8,568.1,161.4,392.9,303.3,296z"/>
	</g>
</g>
<g id="Big_Mid">
	<g>
		<path class="st4" d="M292.1,276.6c140.1-99.7,356.5-95.2,499.4-7.2c177.2,106.4,262,316.3,227.8,509.8c0,0,0.8,3.6-4.2,3.6
			c-5,0-2.2-3.6-2.2-3.6c26.8-186-45.9-377.5-207.4-487.7C668,191.4,447,190.7,306,283C137.3,386.5,54.4,594.3,83.1,782.8
			c-0.9,2.8-5.8,0-7.7,0c-6.5-12.9-8-47.6-9.5-63.9C52,537.7,143.7,374.5,292.1,276.6z"/>
	</g>
</g>
<g id="Big_Out">
	<g>
		<path class="st4" d="M356.4,200.4c171.6-72.1,386.4-34.3,523.9,84.2C1021.5,407,1090,590.3,1058.6,780.1c0,0,0.6,4.4-10.5,4.4
			c-11,0-11.8-4.3-11.8-4.3c9.7-86,2.8-193-30-270.5c-9.4-31.4-26.2-60.9-43-90.4c-109-161.3-285.2-250.1-480.2-226
			C297.3,215.6,120.6,372.7,71.5,552.4c-10.8,60.2-21,122.8-14.3,185.5c0,0,3.8,38.9,2.8,43.3c-1.1,4.4-28.6,8.2-29-15.3
			C-0.8,533,141.4,284.8,356.4,200.4z"/>
	</g>
</g>
<g id="MACHINE">
	<g>
		<path class="st3" d="M267.8,683.4c0.7-4.6,5.5-9.6,12.1-9.6c6.2,0,11,4.4,12.3,9l14.6,49.2h0.2l14.6-49.2c1.4-4.6,6.2-9,12.3-9
			c6.5,0,11.3,5,12.1,9.6l11.5,69.4c0.1,0.7,0.1,1.5,0.1,2.1c0,5.5-3.9,9-8.9,9c-6.3,0-8.8-2.8-9.6-8.8l-7.3-50.7h-0.2l-14.8,52.2
			c-0.9,3.1-3.2,7.3-9.9,7.3c-6.7,0-9-4.2-9.9-7.3l-14.8-52.2H282l-7.3,50.7c-0.9,5.9-3.3,8.8-9.6,8.8c-4.9,0-8.9-3.4-8.9-9
			c0-0.6,0-1.4,0.1-2.1L267.8,683.4z"/>
		<path class="st3" d="M398.8,683.4c2.1-5.8,6.9-10.4,13.2-10.4c6.5,0,11.1,4.3,13.2,10.4l24.2,67.7c0.8,2,1,3.7,1,4.6
			c0,4.9-3.9,8.2-8.5,8.2c-5.2,0-7.8-2.7-9-6.4l-3.7-11.7h-34.3l-3.7,11.6c-1.2,3.8-3.8,6.5-8.9,6.5c-4.9,0-9.1-3.7-9.1-8.8
			c0-2,0.6-3.5,0.9-4.1L398.8,683.4z M400.1,728.5h23.4l-11.5-36.1h-0.2L400.1,728.5z"/>
		<path class="st3" d="M507.4,673c9,0,26.5,3,26.5,13.9c0,4.4-3.1,8.4-7.6,8.4c-5,0-8.5-4.4-18.9-4.4c-15.3,0-23.2,13.1-23.2,28.2
			c0,14.9,8,27.6,23.2,27.6c10.3,0,14.6-5.3,19.6-5.3c5.5,0,8.1,5.7,8.1,8.5c0,12-18.6,14.7-27.8,14.7c-25,0-42.4-20-42.4-45.9
			C465,692.9,482.2,673,507.4,673z"/>
		<path class="st3" d="M556.1,683.5c0-6.3,4-9.7,9.2-9.7c5.3,0,9.2,3.5,9.2,9.7v26.4h38.7v-26.4c0-6.3,3.9-9.7,9.2-9.7
			c5.3,0,9.2,3.5,9.2,9.7v70.7c0,6.3-4,9.7-9.2,9.7c-5.3,0-9.2-3.4-9.2-9.7v-27.1h-38.7v27.1c0,6.3-3.9,9.7-9.2,9.7
			c-5.3,0-9.2-3.4-9.2-9.7V683.5z"/>
		<path class="st3" d="M655.3,683.5c0-6.3,3.9-9.7,9.2-9.7c5.3,0,9.2,3.5,9.2,9.7v70.7c0,6.3-4,9.7-9.2,9.7c-5.3,0-9.2-3.4-9.2-9.7
			V683.5z"/>
		<path class="st3" d="M696.4,683.5c0-6.3,4-9.7,9.3-9.7c2.3,0,6.2,1.8,7.8,4.1l39.1,52.6h0.2v-47c0-6.3,3.9-9.7,9.2-9.7
			c5.3,0,9.2,3.5,9.2,9.7v70.7c0,6.3-3.9,9.7-9.2,9.7c-2.3,0-6-1.8-7.8-4.1l-39.1-52h-0.2v46.4c0,6.3-3.9,9.7-9.2,9.7
			c-5.3,0-9.3-3.4-9.3-9.7L696.4,683.5L696.4,683.5z"/>
		<path class="st3" d="M794,685.4c0-6.3,3.1-10.8,9.6-10.8h30.6c5.9,0,8.8,4.2,8.8,8.6c0,4.2-3,8.5-8.8,8.5h-21.7v18.2h20.2
			c6,0,9,4.2,9,8.5c0,4.3-3.1,8.6-9,8.6h-20.2v19h22.8c5.9,0,8.7,4.2,8.7,8.5s-3,8.6-8.7,8.6h-31.8c-5.4,0-9.5-3.7-9.5-9.4V685.4z"
			/>
	</g>
</g>
<g id="CLEAN">
	<g>
		<path class="st3" d="M395.7,540.9c9,0,26.5,3,26.5,13.9c0,4.4-3.1,8.4-7.6,8.4c-5,0-8.5-4.4-18.9-4.4c-15.3,0-23.2,13.1-23.2,28.2
			c0,14.9,8,27.6,23.2,27.6c10.4,0,14.5-5.3,19.6-5.3c5.5,0,8.1,5.7,8.1,8.5c0,12-18.6,14.7-27.7,14.7c-25,0-42.4-20-42.4-45.9
			S370.5,540.9,395.7,540.9z"/>
		<path class="st3" d="M444.4,551.4c0-6.3,3.9-9.7,9.2-9.7c5.3,0,9.2,3.5,9.2,9.7v62.5h22c6.3,0,8.9,4.7,8.9,8.9
			c-0.2,4.2-3.4,8.3-8.9,8.3H454c-6,0-9.6-4-9.6-10.2V551.4z"/>
		<path class="st3" d="M509.3,553.3c0-6.3,3.1-10.8,9.6-10.8h30.6c5.9,0,8.7,4.2,8.7,8.6c0,4.2-3,8.5-8.7,8.5h-21.7v18.2H548
			c6,0,9,4.2,9,8.5c0,4.3-3.1,8.6-9,8.6h-20.2v19h22.8c5.9,0,8.8,4.2,8.8,8.5c0,4.3-3,8.6-8.8,8.6h-31.8c-5.4,0-9.5-3.7-9.5-9.4
			L509.3,553.3L509.3,553.3z"/>
		<path class="st3" d="M599,551.3c2.1-5.8,6.9-10.3,13.2-10.3c6.5,0,11.1,4.3,13.2,10.3l24.2,67.7c0.8,2,1,3.7,1,4.6
			c0,4.9-3.9,8.3-8.5,8.3c-5.2,0-7.8-2.7-9-6.4l-3.7-11.7h-34.3l-3.7,11.6c-1.2,3.8-3.8,6.5-8.9,6.5c-4.9,0-9.1-3.7-9.1-8.8
			c0-2,0.6-3.5,0.9-4.1L599,551.3z M600.4,596.4h23.4l-11.5-36.1h-0.2L600.4,596.4z"/>
		<path class="st3" d="M667.9,551.4c0-6.3,3.9-9.7,9.2-9.7c2.3,0,6.2,1.8,7.8,4.1l39.1,52.6h0.2v-47c0-6.3,3.9-9.7,9.2-9.7
			c5.3,0,9.2,3.5,9.2,9.7v70.6c0,6.3-3.9,9.7-9.2,9.7c-2.3,0-6-1.8-7.8-4.1l-39.1-52h-0.2V622c0,6.3-3.9,9.7-9.2,9.7
			s-9.2-3.5-9.2-9.7V551.4z"/>
	</g>
</g>
<g id="THE">
	<g>
		<path class="st3" d="M455.8,427.4h-13.4c-5.9,0-8.4-4.3-8.4-8.5c0-4.4,3.1-8.6,8.4-8.6h45.4c5.3,0,8.4,4.2,8.4,8.6
			c0,4.2-2.5,8.5-8.4,8.5h-13.4v62.5c0,6.3-3.9,9.7-9.2,9.7s-9.2-3.5-9.2-9.7L455.8,427.4L455.8,427.4z"/>
		<path class="st3" d="M512.6,419.3c0-6.3,4-9.8,9.2-9.8c5.3,0,9.2,3.5,9.2,9.8v26.4h38.7v-26.4c0-6.3,3.9-9.8,9.2-9.8
			c5.3,0,9.3,3.5,9.3,9.8v70.6c0,6.3-4,9.7-9.3,9.7c-5.3,0-9.2-3.5-9.2-9.7v-27.1h-38.7v27.1c0,6.3-3.9,9.7-9.2,9.7
			c-5.3,0-9.2-3.5-9.2-9.7V419.3z"/>
		<path class="st3" d="M611.7,421.1c0-6.3,3.1-10.9,9.6-10.9h30.6c5.9,0,8.8,4.2,8.8,8.6c0,4.2-3,8.5-8.8,8.5h-21.7v18.2h20.2
			c6,0,9,4.2,9,8.5s-3.1,8.6-9,8.6h-20.2v19H653c5.9,0,8.7,4.2,8.7,8.5c0,4.3-3,8.6-8.7,8.6h-31.8c-5.4,0-9.5-3.7-9.5-9.4V421.1z"/>
	</g>
</g>
</svg>
